<svg width="188" height="60" viewBox="0 0 188 60" fill="none" xmlns="http://www.w3.org/2000/svg">
<rect width="60" height="60" rx="5" fill="#27AE60" fill-opacity="0.1"/>
<path d="M9.6 42V18.96H14.528V42H9.6ZM24.512 42V18.96H29.44V42H24.512ZM11.904 28.112H26.752V31.888H11.904V28.112ZM36.6633 42V38.48H42.6153C43.6819 38.48 44.4819 38.192 45.0153 37.616C45.5699 37.0187 45.8473 36.1973 45.8473 35.152C45.8473 34.0853 45.5486 33.2427 44.9513 32.624C44.3753 32.0053 43.5433 31.696 42.4553 31.696H36.6633V28.176H42.1993C43.2019 28.176 43.9593 27.9413 44.4713 27.472C45.0046 26.9813 45.2713 26.2667 45.2713 25.328C45.2713 24.3893 45.0153 23.6853 44.5033 23.216C44.0126 22.7253 43.2766 22.48 42.2953 22.48H36.6633V18.96H43.3513C45.3993 18.96 47.0526 19.4827 48.3113 20.528C49.5699 21.5733 50.1993 22.992 50.1993 24.784C50.1993 25.9147 49.9326 26.8853 49.3993 27.696C48.8659 28.5067 48.1513 29.1253 47.2553 29.552C46.3593 29.9787 45.3566 30.192 44.2473 30.192L44.4073 29.52C45.6019 29.52 46.6793 29.776 47.6393 30.288C48.6206 30.8 49.3993 31.5253 49.9753 32.464C50.5513 33.3813 50.8393 34.4693 50.8393 35.728C50.8393 36.9867 50.5406 38.096 49.9433 39.056C49.3673 39.9947 48.5459 40.72 47.4792 41.232C46.4339 41.744 45.1966 42 43.7673 42H36.6633ZM32.6313 42V18.96H37.5593V42H32.6313Z" fill="#27AE60"/>
<path d="M63.6 42V18.96H68.528V42H63.6ZM78.512 42V18.96H83.44V42H78.512ZM65.904 28.112H80.752V31.888H65.904V28.112ZM97.2233 42C97.0953 41.5307 96.9993 41.0293 96.9353 40.496C96.8926 39.9627 96.8713 39.344 96.8713 38.64H96.7433V30.928C96.7433 30.2667 96.5193 29.7547 96.0713 29.392C95.6446 29.008 95.0046 28.816 94.1513 28.816C93.3406 28.816 92.6899 28.9547 92.1993 29.232C91.7299 29.5093 91.4206 29.9147 91.2713 30.448H86.6953C86.9086 28.976 87.6659 27.76 88.9673 26.8C90.2686 25.84 92.0499 25.36 94.3113 25.36C96.6579 25.36 98.4499 25.8827 99.6873 26.928C100.925 27.9733 101.543 29.4773 101.543 31.44V38.64C101.543 39.1733 101.575 39.7173 101.639 40.272C101.725 40.8053 101.853 41.3813 102.023 42H97.2233ZM91.5273 42.32C89.9059 42.32 88.6153 41.9147 87.6553 41.104C86.6953 40.272 86.2153 39.1733 86.2153 37.808C86.2153 36.2933 86.7806 35.0773 87.9113 34.16C89.0633 33.2213 90.6633 32.6133 92.7113 32.336L97.4793 31.664V34.448L93.5113 35.056C92.6579 35.184 92.0286 35.4187 91.6233 35.76C91.2179 36.1013 91.0153 36.5707 91.0153 37.168C91.0153 37.7013 91.2073 38.1067 91.5913 38.384C91.9753 38.6613 92.4873 38.8 93.1273 38.8C94.1299 38.8 94.9833 38.5333 95.6873 38C96.3913 37.4453 96.7433 36.8053 96.7433 36.08L97.1913 38.64C96.7219 39.856 96.0073 40.7733 95.0473 41.392C94.0873 42.0107 92.9139 42.32 91.5273 42.32ZM112.25 42.32C110.543 42.32 109.039 41.9573 107.738 41.232C106.436 40.5067 105.412 39.504 104.666 38.224C103.94 36.944 103.578 35.4827 103.578 33.84C103.578 32.1973 103.94 30.736 104.666 29.456C105.412 28.176 106.436 27.1733 107.738 26.448C109.039 25.7227 110.543 25.36 112.25 25.36C113.679 25.36 114.959 25.6267 116.09 26.16C117.242 26.672 118.18 27.3867 118.906 28.304C119.652 29.2213 120.132 30.2987 120.346 31.536H115.706C115.471 30.7467 115.044 30.1493 114.426 29.744C113.828 29.3387 113.124 29.136 112.314 29.136C111.546 29.136 110.874 29.328 110.298 29.712C109.743 30.096 109.316 30.64 109.018 31.344C108.719 32.048 108.57 32.88 108.57 33.84C108.57 34.8 108.719 35.632 109.018 36.336C109.316 37.04 109.743 37.584 110.298 37.968C110.874 38.352 111.546 38.544 112.314 38.544C113.124 38.544 113.828 38.3413 114.426 37.936C115.044 37.5307 115.471 36.9333 115.706 36.144H120.346C120.132 37.3813 119.652 38.4587 118.906 39.376C118.18 40.2933 117.242 41.0187 116.09 41.552C114.959 42.064 113.679 42.32 112.25 42.32ZM122.826 42V18.96H127.626V42H122.826ZM133.29 42L126.506 33.52L133.13 25.68H138.666L130.89 34.256L131.114 32.752L138.986 42H133.29ZM144.476 42V38.48H150.428C151.494 38.48 152.294 38.192 152.828 37.616C153.382 37.0187 153.66 36.1973 153.66 35.152C153.66 34.0853 153.361 33.2427 152.764 32.624C152.188 32.0053 151.356 31.696 150.268 31.696H144.476V28.176H150.012C151.014 28.176 151.772 27.9413 152.284 27.472C152.817 26.9813 153.084 26.2667 153.084 25.328C153.084 24.3893 152.828 23.6853 152.316 23.216C151.825 22.7253 151.089 22.48 150.108 22.48H144.476V18.96H151.164C153.212 18.96 154.865 19.4827 156.124 20.528C157.382 21.5733 158.012 22.992 158.012 24.784C158.012 25.9147 157.745 26.8853 157.212 27.696C156.678 28.5067 155.964 29.1253 155.068 29.552C154.172 29.9787 153.169 30.192 152.06 30.192L152.22 29.52C153.414 29.52 154.492 29.776 155.452 30.288C156.433 30.8 157.212 31.5253 157.788 32.464C158.364 33.3813 158.652 34.4693 158.652 35.728C158.652 36.9867 158.353 38.096 157.756 39.056C157.18 39.9947 156.358 40.72 155.292 41.232C154.246 41.744 153.009 42 151.58 42H144.476ZM140.444 42V18.96H145.372V42H140.444ZM161.295 42V25.68H166.095V42H161.295ZM161.135 23.504V18.32H166.255V23.504H161.135ZM177.602 42.32C175.81 42.32 174.231 41.968 172.866 41.264C171.522 40.5387 170.466 39.536 169.698 38.256C168.951 36.9547 168.578 35.4613 168.578 33.776C168.578 32.0907 168.951 30.6187 169.698 29.36C170.466 28.1013 171.522 27.12 172.866 26.416C174.231 25.712 175.81 25.36 177.602 25.36C179.415 25.36 180.994 25.712 182.338 26.416C183.703 27.12 184.759 28.1013 185.506 29.36C186.252 30.6187 186.626 32.0907 186.626 33.776C186.626 35.4613 186.242 36.9547 185.474 38.256C184.727 39.536 183.671 40.5387 182.306 41.264C180.962 41.968 179.394 42.32 177.602 42.32ZM177.602 38.544C178.348 38.544 179.02 38.352 179.618 37.968C180.236 37.584 180.727 37.04 181.09 36.336C181.452 35.6107 181.634 34.7467 181.634 33.744C181.634 32.272 181.239 31.1413 180.45 30.352C179.682 29.5413 178.732 29.136 177.602 29.136C176.471 29.136 175.511 29.5413 174.722 30.352C173.954 31.1627 173.57 32.2933 173.57 33.744C173.57 34.7467 173.751 35.6107 174.114 36.336C174.476 37.04 174.956 37.584 175.554 37.968C176.172 38.352 176.855 38.544 177.602 38.544Z" fill="black"/>
</svg>
